<?xml version="1.0" encoding="UTF-8" standalone="no" ?>
<!DOCTYPE svg PUBLIC "-//W3C//DTD SVG 1.1//EN" "http://www.w3.org/Graphics/SVG/1.1/DTD/svg11.dtd">
<svg xmlns="http://www.w3.org/2000/svg" xmlns:xlink="http://www.w3.org/1999/xlink" version="1.1" width="500" height="500" viewBox="0 0 500 500" xml:space="preserve">
<desc>Created with Fabric.js 4.5.0</desc>
<defs>
</defs>
<g transform="matrix(1 0 0 1 250 270)"  >
<rect style="stroke: rgb(244,209,158); stroke-width: 1; stroke-dasharray: none; stroke-linecap: butt; stroke-dashoffset: 0; stroke-linejoin: miter; stroke-miterlimit: 4; fill: rgb(244,209,158); fill-rule: nonzero; opacity: 1;"  x="-153.875" y="-135" rx="0" ry="0" width="307.75" height="270" />
</g>
<g transform="matrix(1 0 0 1 274.24 174.34)"  >
<path style="stroke: rgb(53,44,33); stroke-width: 1; stroke-dasharray: none; stroke-linecap: butt; stroke-dashoffset: 0; stroke-linejoin: miter; stroke-miterlimit: 4; fill: rgb(53,44,33); fill-rule: nonzero; opacity: 1;"  transform=" translate(-274.24, -154.34)" d="M 424 152.7 L 423.83 114.36999999999999 C 423.82794604426846 112.71977070057804 424.482808457881 111.13658684349286 425.65 109.96999999999998 L 468.46999999999997 67.13999999999999 C 470.24470570110964 65.37347913567203 470.7780357109481 62.71063934018956 469.8205500767303 60.39689831105002 C 468.8630644425125 58.08315728191049 466.60402860128676 56.57587040017334 464.09999999999997 56.579999999999984 L 139.15 56.579999999999984 C 137.50670195360192 56.583249042492696 135.93168640547546 57.23770755792424 134.77 58.399999999999984 L 80 113.19 C 78.84103492673626 114.34900755655319 78.18995751615995 115.92094583512693 78.19 117.56 L 78.19 245.9 C 78.18587040017336 248.40402860128683 79.6931572819105 250.66306444251256 82.00689831105004 251.62055007673035 C 84.32063934018957 252.57803571094811 86.98347913567204 252.04470570110968 88.75 250.27 L 132.21 206.81 C 133.36896507326375 205.6509924434468 134.02004248384006 204.07905416487307 134.02 202.44 L 134.02 161.27 C 134.01982451736117 159.61524875291573 134.68326969621148 158.02954696779892 135.86178319007917 156.86794993556572 C 137.04029668394682 155.70635290333254 138.6354242262498 155.06590167142744 140.29000000000002 155.09 L 417.72 158.91 C 419.38151043706137 158.93690945936015 420.98385112991116 158.2935680426175 422.1654373223863 157.12515239687374 C 423.34702351486146 155.95673675112997 424.00828453796055 154.36170768124165 424 152.7 Z" stroke-linecap="round" />
</g>
<g transform="matrix(1 0 0 1 305 250)"  >
<g style=""   >
		<g transform="matrix(1 0 0 1 -55.5 0)"  >
<rect style="stroke: rgb(198,143,70); stroke-width: 1; stroke-dasharray: none; stroke-linecap: butt; stroke-dashoffset: 0; stroke-linejoin: miter; stroke-miterlimit: 4; fill: rgb(198,143,70); fill-rule: nonzero; opacity: 1;"  x="-22" y="-15.53" rx="0" ry="0" width="44" height="31.06" />
</g>
		<g transform="matrix(1 0 0 1 55.5 0)"  >
<rect style="stroke: rgb(198,143,70); stroke-width: 1; stroke-dasharray: none; stroke-linecap: butt; stroke-dashoffset: 0; stroke-linejoin: miter; stroke-miterlimit: 4; fill: rgb(198,143,70); fill-rule: nonzero; opacity: 1;"  x="-22" y="-15.53" rx="0" ry="0" width="44" height="31.06" />
</g>
</g>
</g>
<g transform="matrix(1 0 0 1 306.71 337.59)"  >
<path style="stroke: rgb(198,143,70); stroke-width: 1; stroke-dasharray: none; stroke-linecap: butt; stroke-dashoffset: 0; stroke-linejoin: miter; stroke-miterlimit: 4; fill: rgb(198,143,70); fill-rule: nonzero; opacity: 1;"  transform=" translate(-306.71, -317.6)" d="M 288 339.24 C 286.6372771029888 339.2343598177847 285.27685985364644 339.12739826501087 283.93 338.92 C 275.9539846445271 337.7559198672866 269.34809828431963 332.1292590145922 266.93 324.44 C 264.38 316.65 266.03000000000003 308.05 271.03000000000003 303.05 C 273.7776166304082 300.29686052209354 278.23686052209354 300.29238336959185 280.99 303.04 C 283.7431394779065 305.7876166304082 283.7476166304082 310.2468605220935 281 313 C 280 314 279.27 317 280.31 320.13 C 281.0442299357431 322.8225921008042 283.33861377060947 324.8005091998269 286.11 325.13 C 297 326.8 302.27000000000004 313.19 302.49 312.61 C 303.54083650646686 309.788617018909 306.2780245755715 307.95520127192424 309.28701900662895 308.05723951563 C 312.29601343768644 308.1592777593358 314.9027100394344 310.1739103941792 315.76 313.06 C 316.33 314.88 318.76 320.17 322.86 322.29 C 325.34000000000003 323.56 328.28000000000003 323.6 331.86 322.41 C 332.32 322.25 333.76 320.12 333.7 316.29 C 333.64 312.73 332.28999999999996 310.12 331.06 309.75 C 328.5555552192716 309.1299785048187 326.59520965288476 307.1825722882009 325.9586164975251 304.6822884105674 C 325.3220233421654 302.18200453293395 326.1124004079315 299.53424136261737 328.0154051541626 297.79204641083186 C 329.9184099003936 296.04985145904635 332.625487356211 295.49570584607164 335.06 296.35 C 342.58 298.6 347.53000000000003 306.35 347.68 316.08000000000004 C 347.82 325.63000000000005 343.34000000000003 333.33000000000004 336.26 335.69000000000005 C 329.17999999999995 338.05000000000007 322.2 337.69000000000005 316.33 334.69000000000005 C 313.51591474863864 333.19922590294703 311.0032816598714 331.1986138619583 308.91999999999996 328.7900000000001 C 304.1 334.35 297.12 339.24 288 339.24 Z" stroke-linecap="round" />
</g>
</svg>